# xmcd
#
# Track frame offsets: 
#        150
#        5880
#        25372
#        50335
#        68740
#        82502
#        96017
#        116150
#        132387
#        145640
#
# Disc length: 2096 seconds
#
# Revision: 0
# Processed by: cddbd v1.5.2PL0 Copyright (c) Steve Scherf et al.
# Submitted via: ExactAudioCopy v0.99pb4
#
DISCID=7e082e0a
DTITLE=Joe Weiss - Living in the North Country
DYEAR=1900
DGENRE=Country
TTITLE0=Winconsin Outdoors
TTITLE1=The One's Wearing Gray
TTITLE2=Rockin' Chair
TTITLE3=Outta Stater Blues
TTITLE4=I Rocked The Boat Too Often
TTITLE5=Big Hawg
TTITLE6=Fencepost
TTITLE7=The Affair
TTITLE8=Fishin' Son Of A Gun
TTITLE9=Proud and Loyal Packer Fans
EXTD=
EXTT0=
EXTT1=
EXTT2=
EXTT3=
EXTT4=
EXTT5=
EXTT6=
EXTT7=
EXTT8=
EXTT9=
PLAYORDER=
